<svg width="192" height="192" viewBox="0 0 192 192" fill="none" xmlns="http://www.w3.org/2000/svg">
<g clip-path="url(#clip0)">
<path d="M93.9963 3.33554L32.0627 23.4631C28.9263 24.4393 26.2167 26.4611 24.383 29.1935C22.5493 31.9259 21.7016 35.2047 21.9805 38.4865L30.7184 158.578C30.9145 161.557 32.0261 164.402 33.9004 166.721C35.7746 169.041 38.3194 170.721 41.1847 171.531L94.5244 188.047C96.3708 188.619 98.368 188.433 100.078 187.531C101.788 186.628 103.071 185.082 103.646 183.231C103.716 182.542 103.7 181.846 103.598 181.161V10.3176C103.599 8.393 102.843 6.54581 101.495 5.17594C100.147 3.80608 98.3156 3.0238 96.3968 2.99847C95.5831 2.96715 94.7702 3.08128 93.9963 3.33554V3.33554ZM82.0417 107.729C77.7208 107.729 74.216 102.384 74.216 95.8356C74.216 89.2869 77.7208 83.9902 82.0417 83.9902C86.3626 83.9902 89.9154 89.2869 89.9154 95.8356C89.9154 102.384 86.3626 107.729 82.0417 107.729Z" fill="#FF6565"/>
<path opacity="0.2" d="M103.715 13.5938L126.472 170.569L103.715 177.744V13.5938Z" fill="#A83936"/>
<path opacity="0.2" d="M22 38.488L30.7379 158.579C30.934 161.558 32.0456 164.403 33.9199 166.723C35.7941 169.042 38.3389 170.722 41.2042 171.532L94.5439 188.048L67.0339 164.55C56.4141 155.35 48.8438 143.122 45.3331 129.495L22 38.488Z" fill="#922424"/>
<path d="M154.987 40.3166C156.068 40.6375 157.002 41.3295 157.625 42.2715C158.248 43.2135 158.521 44.3454 158.396 45.4689L156.86 64.1037L156.427 70.4116L166.03 71.2302L166.558 64.7779L167.95 46.3356C168.243 43.0522 167.408 39.767 165.582 37.0254C163.757 34.2838 161.052 32.2509 157.916 31.2641L135.591 24.0413L131.798 22.7893V32.9012L132.614 33.1901L154.987 40.3166Z" fill="#CA3F3C"/>
<path d="M151.633 125.737L151.201 130.552L149.665 149.813C149.567 150.793 149.188 151.723 148.575 152.492C147.961 153.261 147.139 153.836 146.208 154.146L130.988 158.962L124.891 160.888L126.283 170.518L133.869 168.111L149.088 163.295C151.855 162.443 154.301 160.774 156.108 158.506C157.915 156.239 158.999 153.478 159.219 150.583L160.803 131.322L161.187 126.507L151.633 125.737Z" fill="#CA3F3C"/>
</g>
<defs>
<clipPath id="clip0">
<rect x="22" y="3" width="146" height="185" fill="white"/>
</clipPath>
</defs>
</svg>
