<?xml version="1.0" encoding="UTF-8" standalone="no"?>
<!DOCTYPE svg PUBLIC "-//W3C//DTD SVG 1.1//EN" "http://www.w3.org/Graphics/SVG/1.1/DTD/svg11.dtd">
<svg version="1.1" xmlns="http://www.w3.org/2000/svg" xmlns:xlink="http://www.w3.org/1999/xlink" preserveAspectRatio="xMidYMid meet" viewBox="0 0 640 640" width="640" height="640"><defs><path d="M521.19 292.27C521.19 403.06 431.04 493.01 320 493.01C208.96 493.01 118.81 403.06 118.81 292.27C118.81 181.48 208.96 91.54 320 91.54C431.04 91.54 521.19 181.48 521.19 292.27Z" id="a7uhV106k"></path><path d="M336.82 412.24C274.58 412.24 224.05 358.61 224.05 292.56C224.05 226.51 274.58 172.88 336.82 172.88C399.06 172.88 449.58 226.51 449.58 292.56C449.58 358.61 399.06 412.24 336.82 412.24Z" id="dY9lxmFOF"></path><path d="M134.01 323.57C147.61 402.24 210.01 464.51 289.21 478.24C303.74 480.77 335.88 480.77 351.74 478.24C441.34 463.71 508.01 385.17 508.28 293.57C508.54 242.64 490.81 198.77 455.34 161.71C427.08 132.37 390.94 113.04 351.48 106.24C336.54 103.71 300.68 103.84 286.28 106.37C208.54 120.51 147.48 182.37 134.01 260.91C130.94 278.37 130.94 305.97 134.01 323.57ZM364.28 303.17C310.54 357.04 308.41 358.91 303.61 358.91C300.81 358.91 297.21 358.24 295.61 357.44C291.48 355.31 240.28 304.24 237.88 299.97C233.61 291.84 236.94 281.31 244.94 277.97C254.28 274.11 256.94 275.71 280.94 299.31C282.4 300.74 289.69 307.89 302.81 320.77C330.97 292.69 346.61 277.09 349.74 273.97C375.61 248.24 397.61 226.91 398.68 226.51C402.54 225.17 408.14 225.57 412.01 227.57C416.94 230.11 420.01 235.84 420.01 242.51C420.01 247.31 418.01 249.44 364.28 303.17Z" id="gGSdW5Sph"></path><path d="M134.01 323.57C147.61 402.24 210.01 464.51 289.21 478.24C303.74 480.77 335.88 480.77 351.74 478.24C441.34 463.71 508.01 385.17 508.28 293.57C508.54 242.64 490.81 198.77 455.34 161.71C427.08 132.37 390.94 113.04 351.48 106.24C336.54 103.71 300.68 103.84 286.28 106.37C208.54 120.51 147.48 182.37 134.01 260.91C130.94 278.37 130.94 305.97 134.01 323.57ZM364.28 303.17C310.54 357.04 308.41 358.91 303.61 358.91C300.81 358.91 297.21 358.24 295.61 357.44C291.48 355.31 240.28 304.24 237.88 299.97C233.61 291.84 236.94 281.31 244.94 277.97C254.28 274.11 256.94 275.71 280.94 299.31C282.4 300.74 289.69 307.89 302.81 320.77C330.97 292.69 346.61 277.09 349.74 273.97C375.61 248.24 397.61 226.91 398.68 226.51C402.54 225.17 408.14 225.57 412.01 227.57C416.94 230.11 420.01 235.84 420.01 242.51C420.01 247.31 418.01 249.44 364.28 303.17Z" id="bM0u420Mf"></path></defs><g><g><g><use xlink:href="#a7uhV106k" opacity="1" fill="#ffffff" fill-opacity="1"></use></g><g><use xlink:href="#dY9lxmFOF" opacity="1" fill="#ffffff" fill-opacity="1"></use><g><use xlink:href="#dY9lxmFOF" opacity="1" fill-opacity="0" stroke="#000000" stroke-width="1" stroke-opacity="0"></use></g></g><g><use xlink:href="#gGSdW5Sph" opacity="1" fill="#21b071" fill-opacity="1"></use><g><use xlink:href="#gGSdW5Sph" opacity="1" fill-opacity="0" stroke="#000000" stroke-width="1" stroke-opacity="0"></use></g></g><g><use xlink:href="#bM0u420Mf" opacity="1" fill="#000000" fill-opacity="0"></use><g><use xlink:href="#bM0u420Mf" opacity="1" fill-opacity="0" stroke="#000000" stroke-width="1" stroke-opacity="0"></use></g></g></g></g></svg>