<?xml version="1.0" encoding="UTF-8" standalone="no"?>
<!DOCTYPE svg PUBLIC "-//W3C//DTD SVG 1.1//EN" "http://www.w3.org/Graphics/SVG/1.1/DTD/svg11.dtd">
<svg version="1.1" xmlns="http://www.w3.org/2000/svg" xmlns:xlink="http://www.w3.org/1999/xlink" preserveAspectRatio="xMidYMid meet" viewBox="0 0 640 640" width="640" height="640"><defs><path d="M6.82 271.35C2.49 272.74 -0.33 276.9 0 281.43C0.59 289.53 5.34 354.32 5.93 362.42C6.23 366.47 8.99 369.92 12.87 371.11C16.47 372.22 45.3 381.14 48.9 382.26C51.48 383.08 54.23 381.65 55.05 379.08C55.2 378.58 55.28 378.06 55.28 377.54C55.28 366.04 55.28 273.96 55.28 262.46C55.28 259.76 53.11 257.57 50.41 257.53C49.88 257.53 49.35 257.61 48.84 257.77C40.44 260.49 11.02 269.99 6.82 271.35ZM35.35 320.13C35.35 315.71 37.72 312.13 40.66 312.13C43.59 312.13 45.93 315.71 45.93 320.13C45.93 324.55 43.56 328.11 40.66 328.11C37.69 328.11 35.35 324.55 35.35 320.13Z" id="c1JE3uhqCe"></path><path d="M70.64 370.49L55.28 375.32L55.28 264.68L55.28 264.68L70.64 370.49Z" id="e3GE5R25qX"></path><path d="M0 281.43C3.56 330.03 5.54 357.02 5.93 362.42C6.23 366.47 8.99 369.92 12.87 371.11C15.27 371.85 27.28 375.57 48.9 382.26C37.85 372.76 31.71 367.48 30.48 366.42C23.27 360.21 18.14 351.93 15.81 342.7C13.7 334.53 8.43 314.11 0 281.43Z" id="baVcujDVH"></path><path d="M89.94 282.68C91.42 283.16 92.37 284.6 92.23 286.15C92.16 286.99 91.82 291.17 91.22 298.69L90.86 303.02L97.33 303.59L97.68 299.23C98.3 291.7 98.65 287.52 98.72 286.68C99.08 282.13 96.27 277.92 91.93 276.51C90.92 276.19 85.89 274.57 76.83 271.65L74.14 270.82L74.14 277.64L74.7 277.82C82.83 280.41 87.91 282.03 89.94 282.68Z" id="d78SHoQWR"></path><path d="M87.78 340.27L87.51 343.53C86.87 351.29 86.51 355.6 86.44 356.46C86.36 357.83 85.44 359.01 84.13 359.43C83.44 359.64 80.01 360.73 73.84 362.69L69.69 363.96L70.64 370.49L75.8 368.86C81.92 366.92 85.32 365.84 86 365.62C89.82 364.43 92.54 361.04 92.88 357.05C92.95 356.19 93.29 351.88 93.92 344.12L94.21 340.83L87.78 340.27Z" id="bNLvwB2r"></path><path d="M153.4 340.86C158.1 347.51 165.69 351.51 173.83 351.63C182.13 352.66 189.7 346.78 190.77 338.49C190.77 338.36 190.77 337.37 190.77 337.24C190.77 327.7 181.87 323.93 172.97 320.07C162.36 315.6 152.22 311 152.22 298.01C152.08 287.07 160.85 278.1 171.79 277.97C171.8 277.97 171.81 277.97 171.82 277.96C172.4 277.94 172.98 277.94 173.57 277.96C182.06 277.88 190.14 281.63 195.57 288.17C195.1 288.63 191.35 292.36 190.88 292.82C186.71 287.51 180.3 284.44 173.54 284.52C166.24 283.79 159.73 289.09 158.95 296.38C158.95 296.77 158.95 297.12 158.95 297.48C158.95 306.94 167.84 310.44 176.95 314.29C187.03 318.47 197.71 323.19 197.71 336.98C197.84 348.65 188.48 358.23 176.8 358.36C176.66 358.36 176.52 358.36 176.38 358.36C175.63 358.4 174.88 358.4 174.13 358.36C164.12 358.2 154.68 353.68 148.27 345.99C149.3 344.97 152.89 341.37 153.4 340.86Z" id="b2HX495h8B"></path><path d="M235.31 302.28C244.28 302.12 252.7 306.61 257.58 314.14C257.58 313.42 257.58 309.8 257.58 303.29L264.19 303.29L264.19 357.11L257.58 357.11C257.58 350.74 257.58 347.2 257.58 346.5C252.69 354.02 244.28 358.5 235.31 358.36C220.01 358.07 207.82 345.46 208.05 330.16C207.99 314.98 220.13 302.56 235.31 302.28ZM257.58 330.16C257.53 318.3 247.88 308.73 236.02 308.78C224.16 308.83 214.59 318.48 214.64 330.33C214.69 342.19 224.34 351.76 236.2 351.72C247.98 351.67 257.53 342.12 257.58 330.33C257.58 330.3 257.58 330.19 257.58 330.16Z" id="a8rBGAKNn"></path><path d="M291.32 303.29L305.91 303.29L305.91 309.22L291.32 309.22L291.32 357.11L284.68 357.11L284.68 309.28L275.79 309.28L275.79 303.35L284.68 303.35C284.68 297.21 284.68 293.8 284.68 293.12C284.17 285.47 289.94 278.85 297.58 278.29C298.1 278.25 298.63 278.25 299.15 278.29C301.44 278.33 303.71 278.7 305.88 279.39C305.88 279.98 305.88 284.73 305.88 285.32C304.01 284.52 301.99 284.1 299.95 284.07C295.21 283.91 291.22 287.62 291.06 292.37C291.06 292.39 291.06 292.41 291.06 292.44C291.12 292.86 291.21 293.27 291.32 293.68C291.32 294.96 291.32 298.17 291.32 303.29Z" id="c8AKsGw9Kv"></path><path d="M367.09 331.19C337.22 331.19 320.62 331.19 317.3 331.19C317.8 343.22 327.95 352.57 339.98 352.07C347.2 351.77 353.8 347.92 357.6 341.78C358.17 342.02 362.7 343.92 363.27 344.15C358.35 352.83 349.13 358.18 339.16 358.15C323.73 358.16 311.21 345.66 311.2 330.24C311.19 314.81 323.69 302.29 339.12 302.28C354.27 302.27 366.68 314.35 367.06 329.5C367.07 329.73 367.08 330.29 367.09 331.19ZM360.33 325.74C358.45 315.57 349.55 308.21 339.22 308.27C328.82 308.19 319.85 315.54 317.86 325.74C326.36 325.74 356.08 325.74 360.33 325.74Z" id="a4kwmpLXYx"></path><path d="M396.36 292.53L396.36 311.47L424.06 311.47L424.06 324.79L396.33 324.79L396.33 343.53L427.79 343.53L427.79 356.99L381.21 356.99L381.21 279.03L427.82 279.03L427.82 292.53L396.36 292.53Z" id="cWu0DFVn"></path><path d="M492.05 357.11L477.43 357.11C477.43 338.15 477.43 327.61 477.43 325.5C477.43 316.9 473.4 314.41 467.83 314.41C461.66 314.41 457.18 318.32 457.15 326.51C457.15 328.55 457.15 338.75 457.15 357.11L442.59 357.11L442.59 303.29L457.15 303.29C457.15 307.86 457.15 310.4 457.15 310.91C460.74 305.46 466.87 302.22 473.4 302.34C484.94 302.28 492.05 309.43 492.05 322.92C492.05 327.48 492.05 338.88 492.05 357.11Z" id="j3PvK2cYPv"></path><path d="M523.75 313.4C523.75 328.6 523.75 337.04 523.75 338.73C523.75 343.65 526.45 345.99 530.31 345.99C530.68 345.99 532.53 345.99 535.85 345.99L535.85 357.11C530.36 357.11 527.3 357.11 526.69 357.11C518.14 358.16 510.35 352.08 509.28 343.53C509.19 342.54 509.19 341.55 509.28 340.57C509.28 338.75 509.28 329.7 509.28 313.4L500.8 313.4L500.8 303.29L509.28 303.29L509.28 288.46L523.81 288.46L523.81 303.29L536.09 303.29L536.09 313.4L523.75 313.4Z" id="a1zMNE2cx"></path><path d="M580.6 316.6C569.33 316.6 562.81 320.67 562.81 331.43C562.81 333.15 562.81 341.72 562.81 357.14L548.31 357.14L548.31 303.29L562.16 303.29C562.16 309.48 562.16 312.92 562.16 313.61C566.1 307.13 573.03 303.07 580.6 302.79C580.6 305.55 580.6 315.22 580.6 316.6Z" id="a1EA2IMR13"></path><path d="M640 303.29L608.33 382.44L593.5 382.44L604.8 353.91L584.04 303.29L599.97 303.29L612.39 340.21L624.82 303.29L640 303.29Z" id="b1qACa6fTu"></path></defs><g><g><g><use xlink:href="#c1JE3uhqCe" opacity="1" fill="#ffffff" fill-opacity="1"></use><g><use xlink:href="#c1JE3uhqCe" opacity="1" fill-opacity="0" stroke="#000000" stroke-width="1" stroke-opacity="0"></use></g></g><g><use xlink:href="#e3GE5R25qX" opacity="1" fill="#ffffff" fill-opacity="1"></use><g><use xlink:href="#e3GE5R25qX" opacity="1" fill-opacity="0" stroke="#000000" stroke-width="1" stroke-opacity="0"></use></g></g><g><use xlink:href="#baVcujDVH" opacity="1" fill="#ffffff" fill-opacity="1"></use><g><use xlink:href="#baVcujDVH" opacity="1" fill-opacity="0" stroke="#000000" stroke-width="1" stroke-opacity="0"></use></g></g><g><use xlink:href="#d78SHoQWR" opacity="1" fill="#ffffff" fill-opacity="1"></use><g><use xlink:href="#d78SHoQWR" opacity="1" fill-opacity="0" stroke="#000000" stroke-width="1" stroke-opacity="0"></use></g></g><g><use xlink:href="#bNLvwB2r" opacity="1" fill="#ffffff" fill-opacity="1"></use><g><use xlink:href="#bNLvwB2r" opacity="1" fill-opacity="0" stroke="#000000" stroke-width="1" stroke-opacity="0"></use></g></g><g><use xlink:href="#b2HX495h8B" opacity="1" fill="#ffffff" fill-opacity="1"></use><g><use xlink:href="#b2HX495h8B" opacity="1" fill-opacity="0" stroke="#000000" stroke-width="1" stroke-opacity="0"></use></g></g><g><use xlink:href="#a8rBGAKNn" opacity="1" fill="#ffffff" fill-opacity="1"></use><g><use xlink:href="#a8rBGAKNn" opacity="1" fill-opacity="0" stroke="#000000" stroke-width="1" stroke-opacity="0"></use></g></g><g><use xlink:href="#c8AKsGw9Kv" opacity="1" fill="#ffffff" fill-opacity="1"></use><g><use xlink:href="#c8AKsGw9Kv" opacity="1" fill-opacity="0" stroke="#000000" stroke-width="1" stroke-opacity="0"></use></g></g><g><use xlink:href="#a4kwmpLXYx" opacity="1" fill="#ffffff" fill-opacity="1"></use><g><use xlink:href="#a4kwmpLXYx" opacity="1" fill-opacity="0" stroke="#000000" stroke-width="1" stroke-opacity="0"></use></g></g><g><use xlink:href="#cWu0DFVn" opacity="1" fill="#ffffff" fill-opacity="1"></use><g><use xlink:href="#cWu0DFVn" opacity="1" fill-opacity="0" stroke="#000000" stroke-width="1" stroke-opacity="0"></use></g></g><g><use xlink:href="#j3PvK2cYPv" opacity="1" fill="#ffffff" fill-opacity="1"></use><g><use xlink:href="#j3PvK2cYPv" opacity="1" fill-opacity="0" stroke="#000000" stroke-width="1" stroke-opacity="0"></use></g></g><g><use xlink:href="#a1zMNE2cx" opacity="1" fill="#ffffff" fill-opacity="1"></use><g><use xlink:href="#a1zMNE2cx" opacity="1" fill-opacity="0" stroke="#000000" stroke-width="1" stroke-opacity="0"></use></g></g><g><use xlink:href="#a1EA2IMR13" opacity="1" fill="#ffffff" fill-opacity="1"></use><g><use xlink:href="#a1EA2IMR13" opacity="1" fill-opacity="0" stroke="#000000" stroke-width="1" stroke-opacity="0"></use></g></g><g><use xlink:href="#b1qACa6fTu" opacity="1" fill="#ffffff" fill-opacity="1"></use><g><use xlink:href="#b1qACa6fTu" opacity="1" fill-opacity="0" stroke="#000000" stroke-width="1" stroke-opacity="0"></use></g></g></g></g></svg>